<svg width="31" height="30" viewBox="0 0 31 30" fill="none" xmlns="http://www.w3.org/2000/svg">
<path d="M14.3055 18.75H16.8055V21.25H14.3055V18.75ZM14.3055 8.75H16.8055V16.25H14.3055V8.75ZM15.543 2.5C8.64304 2.5 3.05554 8.1 3.05554 15C3.05554 21.9 8.64304 27.5 15.543 27.5C22.4555 27.5 28.0555 21.9 28.0555 15C28.0555 8.1 22.4555 2.5 15.543 2.5ZM15.5555 25C10.0305 25 5.55554 20.525 5.55554 15C5.55554 9.475 10.0305 5 15.5555 5C21.0805 5 25.5555 9.475 25.5555 15C25.5555 20.525 21.0805 25 15.5555 25Z" fill="#A1A1AA"/>
</svg>
