<svg width="19" height="31" viewBox="0 0 19 31" fill="none" xmlns="http://www.w3.org/2000/svg">
<path d="M2.66669 25.5C2.11669 25.5 1.64585 25.3042 1.25419 24.9125C0.86252 24.5208 0.666687 24.05 0.666687 23.5V9.5C0.666687 8.95 0.86252 8.47917 1.25419 8.0875C1.64585 7.69583 2.11669 7.5 2.66669 7.5H3.66669V5.5H5.66669V7.5H13.6667V5.5H15.6667V7.5H16.6667C17.2167 7.5 17.6875 7.69583 18.0792 8.0875C18.4709 8.47917 18.6667 8.95 18.6667 9.5V23.5C18.6667 24.05 18.4709 24.5208 18.0792 24.9125C17.6875 25.3042 17.2167 25.5 16.6667 25.5H2.66669ZM2.66669 23.5H16.6667V13.5H2.66669V23.5ZM2.66669 11.5H16.6667V9.5H2.66669V11.5ZM9.66669 17.5C9.38335 17.5 9.14585 17.4042 8.95419 17.2125C8.76252 17.0208 8.66669 16.7833 8.66669 16.5C8.66669 16.2167 8.76252 15.9792 8.95419 15.7875C9.14585 15.5958 9.38335 15.5 9.66669 15.5C9.95002 15.5 10.1875 15.5958 10.3792 15.7875C10.5709 15.9792 10.6667 16.2167 10.6667 16.5C10.6667 16.7833 10.5709 17.0208 10.3792 17.2125C10.1875 17.4042 9.95002 17.5 9.66669 17.5ZM5.66669 17.5C5.38335 17.5 5.14585 17.4042 4.95419 17.2125C4.76252 17.0208 4.66669 16.7833 4.66669 16.5C4.66669 16.2167 4.76252 15.9792 4.95419 15.7875C5.14585 15.5958 5.38335 15.5 5.66669 15.5C5.95002 15.5 6.18752 15.5958 6.37919 15.7875C6.57085 15.9792 6.66669 16.2167 6.66669 16.5C6.66669 16.7833 6.57085 17.0208 6.37919 17.2125C6.18752 17.4042 5.95002 17.5 5.66669 17.5ZM13.6667 17.5C13.3834 17.5 13.1459 17.4042 12.9542 17.2125C12.7625 17.0208 12.6667 16.7833 12.6667 16.5C12.6667 16.2167 12.7625 15.9792 12.9542 15.7875C13.1459 15.5958 13.3834 15.5 13.6667 15.5C13.95 15.5 14.1875 15.5958 14.3792 15.7875C14.5709 15.9792 14.6667 16.2167 14.6667 16.5C14.6667 16.7833 14.5709 17.0208 14.3792 17.2125C14.1875 17.4042 13.95 17.5 13.6667 17.5ZM9.66669 21.5C9.38335 21.5 9.14585 21.4042 8.95419 21.2125C8.76252 21.0208 8.66669 20.7833 8.66669 20.5C8.66669 20.2167 8.76252 19.9792 8.95419 19.7875C9.14585 19.5958 9.38335 19.5 9.66669 19.5C9.95002 19.5 10.1875 19.5958 10.3792 19.7875C10.5709 19.9792 10.6667 20.2167 10.6667 20.5C10.6667 20.7833 10.5709 21.0208 10.3792 21.2125C10.1875 21.4042 9.95002 21.5 9.66669 21.5ZM5.66669 21.5C5.38335 21.5 5.14585 21.4042 4.95419 21.2125C4.76252 21.0208 4.66669 20.7833 4.66669 20.5C4.66669 20.2167 4.76252 19.9792 4.95419 19.7875C5.14585 19.5958 5.38335 19.5 5.66669 19.5C5.95002 19.5 6.18752 19.5958 6.37919 19.7875C6.57085 19.9792 6.66669 20.2167 6.66669 20.5C6.66669 20.7833 6.57085 21.0208 6.37919 21.2125C6.18752 21.4042 5.95002 21.5 5.66669 21.5ZM13.6667 21.5C13.3834 21.5 13.1459 21.4042 12.9542 21.2125C12.7625 21.0208 12.6667 20.7833 12.6667 20.5C12.6667 20.2167 12.7625 19.9792 12.9542 19.7875C13.1459 19.5958 13.3834 19.5 13.6667 19.5C13.95 19.5 14.1875 19.5958 14.3792 19.7875C14.5709 19.9792 14.6667 20.2167 14.6667 20.5C14.6667 20.7833 14.5709 21.0208 14.3792 21.2125C14.1875 21.4042 13.95 21.5 13.6667 21.5Z" fill="#1D1D1F"/>
</svg>
