<svg width="31" height="30" viewBox="0 0 31 30" fill="none" xmlns="http://www.w3.org/2000/svg">
<g clip-path="url(#clip0_36_974)">
<path d="M15.5 2.5C8.6 2.5 3 8.1 3 15C3 21.9 8.6 27.5 15.5 27.5C22.4 27.5 28 21.9 28 15C28 8.1 22.4 2.5 15.5 2.5ZM15.5 25C9.9875 25 5.5 20.5125 5.5 15C5.5 9.4875 9.9875 5 15.5 5C21.0125 5 25.5 9.4875 25.5 15C25.5 20.5125 21.0125 25 15.5 25ZM21.2375 9.475L13 17.7125L9.7625 14.4875L8 16.25L13 21.25L23 11.25L21.2375 9.475Z" fill="#00B746"/>
</g>
<defs>
<clipPath id="clip0_36_974">
<rect width="30" height="30" fill="white" transform="translate(0.5)"/>
</clipPath>
</defs>
</svg>
