<svg width="16" height="31" viewBox="0 0 16 31" fill="none" xmlns="http://www.w3.org/2000/svg">
<path d="M10 25.5H14C15.11 25.5 16 24.6 16 23.5V7.5C16 6.4 15.11 5.51 14 5.51H10C10 6.61 9.1 7.5 8 7.5C6.9 7.5 6 6.61 6 5.5H2C0.9 5.5 0 6.4 0 7.5V23.5C0 24.6 0.9 25.5 2 25.5H6C6 24.4 6.9 23.5 8 23.5C9.1 23.5 10 24.4 10 25.5ZM11.46 23.5C10.77 22.31 9.47 21.5 8 21.5C6.53 21.5 5.23 22.31 4.54 23.5H2V7.5H4.54C5.23 8.69 6.53 9.5 8 9.5C9.48 9.5 10.77 8.7 11.46 7.51L14 7.5V23.5H11.46ZM5 14.5V16.5H3V14.5H5ZM9 14.5V16.5H7V14.5H9ZM13 14.5V16.5H11V14.5H13Z" fill="black"/>
</svg>
