<svg width="20" height="20" viewBox="0 0 20 20" fill="none" xmlns="http://www.w3.org/2000/svg">
<path d="M10 10C9.01 10 8.2 9.19 8.2 8.2C8.2 7.21 9.01 6.4 10 6.4C10.99 6.4 11.8 7.21 11.8 8.2C11.8 9.19 10.99 10 10 10ZM15.4 8.38C15.4 5.113 13.015 2.8 10 2.8C6.985 2.8 4.6 5.113 4.6 8.38C4.6 10.486 6.355 13.276 10 16.606C13.645 13.276 15.4 10.486 15.4 8.38ZM10 1C13.78 1 17.2 3.898 17.2 8.38C17.2 11.368 14.797 14.905 10 19C5.203 14.905 2.8 11.368 2.8 8.38C2.8 3.898 6.22 1 10 1Z" fill="black"/>
</svg>
