<svg width="18" height="18" viewBox="0 0 18 18" fill="none" xmlns="http://www.w3.org/2000/svg">
<g clip-path="url(#clip0_1_18)">
<path d="M6.69709 6.51123C6.69709 6.81602 6.45022 7.06289 6.14543 7.06289C5.84063 7.06289 5.59424 6.81602 5.59424 6.51123C5.59424 6.20644 5.84111 5.95957 6.14543 5.95957C6.44974 5.95957 6.69709 6.20691 6.69709 6.51123Z" fill="#EB1933"/>
<path d="M9.18663 14.5061C9.92297 14.4818 10.6228 14.3128 11.2584 14.0266C10.6137 14.2957 9.91585 14.479 9.18663 14.5061Z" fill="#EB1933"/>
<path d="M6.69709 6.51123C6.69709 6.81602 6.45022 7.06289 6.14543 7.06289C5.84063 7.06289 5.59424 6.81602 5.59424 6.51123C5.59424 6.20644 5.84111 5.95957 6.14543 5.95957C6.44974 5.95957 6.69709 6.20691 6.69709 6.51123Z" fill="#EB1933"/>
<path d="M11.2584 14.0266C10.6228 14.3128 9.92297 14.4818 9.18663 14.5061C9.91585 14.479 10.6137 14.2957 11.2584 14.0266Z" fill="#EB1933"/>
<path d="M6.69709 6.51123C6.69709 6.81602 6.45022 7.06289 6.14543 7.06289C5.84063 7.06289 5.59424 6.81602 5.59424 6.51123C5.59424 6.20644 5.84111 5.95957 6.14543 5.95957C6.44974 5.95957 6.69709 6.20691 6.69709 6.51123Z" fill="#EB1933"/>
<path d="M17.8557 7.38382C17.8177 7.17541 17.7731 6.96936 17.7214 6.76617C17.7342 6.80367 17.8182 7.05292 17.8557 7.38382Z" fill="#EB1933"/>
<path d="M17.3695 10.9544C17.529 10.8001 17.7916 10.9497 17.7384 11.1652C17.305 12.9194 16.3573 14.4709 15.0646 15.6502C13.505 17.073 11.4422 17.9551 9.17435 17.9983C4.0005 18.0966 -0.172093 13.858 0.00546423 8.68607C0.171153 3.86069 4.13438 0 9.00012 0C13.1979 0 16.7243 2.87415 17.7194 6.76142C17.7194 6.76142 17.7194 6.7619 17.7204 6.76332C17.7208 6.76427 17.7208 6.76522 17.7213 6.76617C17.7731 6.96936 17.8177 7.1754 17.8557 7.38335C17.9373 8.09452 17.8068 9.18265 16.3094 9.36401C15.8674 9.41718 15.2289 9.42478 14.4897 9.46229C11.5514 9.61088 9.04617 9.41054 8.14841 9.32271C8.00029 9.30846 7.94047 9.12473 8.05156 9.02599C8.62886 8.5123 10.2473 7.39046 13.6014 7.10229C13.8834 7.07808 14.0491 6.77566 13.9214 6.52309C13.0146 4.72473 11.1517 3.49133 9.00012 3.49133C6.97672 3.49133 5.20827 4.58231 4.25117 6.20786C4.15385 6.37355 3.98626 6.48512 3.79588 6.51265L2.59856 6.68404C2.45993 6.70398 2.41293 6.88106 2.52402 6.96651L3.31449 7.57799C3.49774 7.71947 3.58699 7.94925 3.55234 8.17808C3.51198 8.44631 3.49109 8.7212 3.49109 9.00035C3.49109 12.043 5.95743 14.5094 9.00012 14.5094C9.04522 14.5094 9.09032 14.5089 9.13542 14.5075L9.1867 14.5061C9.92303 14.4818 10.6228 14.3128 11.2585 14.0266C11.2623 14.0251 11.2656 14.0232 11.2694 14.0218C12.6837 13.4284 13.8421 12.4224 14.5177 11.7439C14.7351 11.526 15.1059 11.6993 15.0793 12.006L15.0646 12.1736C15.0456 12.3939 15.2877 12.5406 15.4738 12.4214C16.3507 11.8584 16.9598 11.3504 17.369 10.9554L17.3695 10.9544Z" fill="#EB1933"/>
<path d="M11.2584 14.0266C10.6228 14.3128 9.92297 14.4818 9.18663 14.5061C9.91585 14.479 10.6137 14.2957 11.2584 14.0266Z" fill="#EB1933"/>
</g>
<defs>
<clipPath id="clip0_1_18">
<rect width="17.8743" height="18" fill="white"/>
</clipPath>
</defs>
</svg>
