<svg width="20" height="20" viewBox="0 0 20 20" fill="none" xmlns="http://www.w3.org/2000/svg">
<g clip-path="url(#clip0_10_200)">
<path d="M17.8417 9.50829L10.4833 2.14996C10.175 1.84163 9.75 1.66663 9.30834 1.66663H3.33334C2.41667 1.66663 1.66667 2.41663 1.66667 3.33329V9.30829C1.66667 9.74996 1.84167 10.175 2.15834 10.4833L9.51667 17.8416C10.1667 18.4916 11.225 18.4916 11.875 17.8416L17.85 11.8666C18.5 11.2166 18.5 10.1666 17.8417 9.50829ZM10.6917 16.6666L3.33334 9.30829V3.33329H9.30834L16.6667 10.6916L10.6917 16.6666Z" fill="black"/>
<path d="M5.41667 6.66663C6.10703 6.66663 6.66667 6.10698 6.66667 5.41663C6.66667 4.72627 6.10703 4.16663 5.41667 4.16663C4.72632 4.16663 4.16667 4.72627 4.16667 5.41663C4.16667 6.10698 4.72632 6.66663 5.41667 6.66663Z" fill="black"/>
</g>
<defs>
<clipPath id="clip0_10_200">
<rect width="20" height="20" fill="white"/>
</clipPath>
</defs>
</svg>
