<svg width="24" height="31" viewBox="0 0 24 31" fill="none" xmlns="http://www.w3.org/2000/svg">
<g clip-path="url(#clip0_32_830)">
<path d="M21.41 14.91L12.58 6.08C12.21 5.71 11.7 5.5 11.17 5.5H4C2.9 5.5 2 6.4 2 7.5V14.67C2 15.2 2.21 15.71 2.59 16.08L11.42 24.91C12.2 25.69 13.47 25.69 14.25 24.91L21.42 17.74C22.2 16.96 22.2 15.7 21.41 14.91ZM12.83 23.5L4 14.67V7.5H11.17L20 16.33L12.83 23.5Z" fill="black"/>
<path d="M6.5 11.5C7.32843 11.5 8 10.8284 8 10C8 9.17157 7.32843 8.5 6.5 8.5C5.67157 8.5 5 9.17157 5 10C5 10.8284 5.67157 11.5 6.5 11.5Z" fill="black"/>
</g>
<defs>
<clipPath id="clip0_32_830">
<rect width="24" height="24" fill="white" transform="translate(0 3.5)"/>
</clipPath>
</defs>
</svg>
