<svg width="19" height="18" viewBox="0 0 19 18" fill="none" xmlns="http://www.w3.org/2000/svg">
<g clip-path="url(#clip0_22_660)">
<path d="M12.5 3.75L11.435 4.815L10.2425 3.6225V12H8.7575V3.6225L7.565 4.815L6.5 3.75L9.5 0.75L12.5 3.75ZM15.5 7.5V15.75C15.5 16.575 14.825 17.25 14 17.25H5C4.1675 17.25 3.5 16.575 3.5 15.75V7.5C3.5 6.6675 4.1675 6 5 6H7.25V7.5H5V15.75H14V7.5H11.75V6H14C14.825 6 15.5 6.6675 15.5 7.5Z" fill="white"/>
</g>
<defs>
<clipPath id="clip0_22_660">
<rect width="18" height="18" fill="white" transform="translate(0.5)"/>
</clipPath>
</defs>
</svg>
