<svg width="21" height="20" viewBox="0 0 21 20" fill="none" xmlns="http://www.w3.org/2000/svg">
<g clip-path="url(#clip0_24_1213)">
<path d="M10.658 1.66666C6.05801 1.66666 2.33301 5.4 2.33301 10C2.33301 14.6 6.05801 18.3333 10.658 18.3333C15.2663 18.3333 18.9997 14.6 18.9997 10C18.9997 5.4 15.2663 1.66666 10.658 1.66666ZM10.6663 16.6667C6.98301 16.6667 3.99967 13.6833 3.99967 10C3.99967 6.31666 6.98301 3.33333 10.6663 3.33333C14.3497 3.33333 17.333 6.31666 17.333 10C17.333 13.6833 14.3497 16.6667 10.6663 16.6667ZM11.083 5.83333H9.83301V10.8333L14.208 13.4583L14.833 12.4333L11.083 10.2083V5.83333Z" fill="black"/>
</g>
<defs>
<clipPath id="clip0_24_1213">
<rect width="20" height="20" fill="white" transform="translate(0.666504)"/>
</clipPath>
</defs>
</svg>
