<svg width="18" height="18" viewBox="0 0 18 18" fill="none" xmlns="http://www.w3.org/2000/svg">
<g clip-path="url(#clip0_1_84)">
<path d="M3.285 13.905C4.17 13.31 5.0775 12.8537 6.0075 12.5363C6.9375 12.2188 7.935 12.06 9 12.06C10.065 12.06 11.065 12.2188 11.9999 12.5363C12.935 12.8537 13.8451 13.31 14.7301 13.905C15.3451 13.16 15.7938 12.3824 16.0763 11.5724C16.3587 10.7624 16.4999 9.90495 16.4999 9C16.4999 6.885 15.7787 5.10623 14.3363 3.66368C12.8938 2.22128 11.115 1.50007 9 1.50007C6.885 1.50007 5.10623 2.22128 3.66368 3.66368C2.22127 5.10623 1.50007 6.885 1.50007 9C1.50007 9.90495 1.64378 10.7624 1.93118 11.5724C2.21873 12.3824 2.67 13.16 3.285 13.905ZM8.9973 9.74992C8.12415 9.74992 7.38877 9.4503 6.79117 8.85105C6.19372 8.25165 5.895 7.51538 5.895 6.64223C5.895 5.76908 6.1947 5.03377 6.7941 4.43632C7.39335 3.83872 8.12955 3.53993 9.0027 3.53993C9.87585 3.53993 10.6112 3.83962 11.2088 4.43902C11.8063 5.03842 12.105 5.7747 12.105 6.64785C12.105 7.521 11.8053 8.2563 11.2059 8.85375C10.6067 9.4512 9.87045 9.74992 8.9973 9.74992ZM8.99393 18C7.74743 18 6.57608 17.7638 5.47988 17.2913C4.38352 16.8188 3.4299 16.175 2.619 15.3601C1.80795 14.545 1.16873 13.5908 0.701325 12.4974C0.233775 11.404 0 10.2358 0 8.99258C0 7.74938 0.23625 6.58103 0.70875 5.48753C1.18125 4.39418 1.82498 3.4425 2.63993 2.6325C3.45503 1.8225 4.40925 1.18125 5.5026 0.70875C6.59595 0.23625 7.76423 0 9.00743 0C10.2506 0 11.419 0.23625 12.5125 0.70875C13.6058 1.18125 14.5575 1.8225 15.3675 2.6325C16.1775 3.4425 16.8188 4.395 17.2913 5.49C17.7638 6.585 18 7.75365 18 8.99595C18 10.2384 17.7638 11.4059 17.2913 12.4985C16.8188 13.5911 16.1775 14.545 15.3675 15.3601C14.5575 16.175 13.6043 16.8188 12.508 17.2913C11.4118 17.7638 10.2404 18 8.99393 18Z" fill="#A1A1AA"/>
</g>
<defs>
<clipPath id="clip0_1_84">
<rect width="18" height="18" fill="white"/>
</clipPath>
</defs>
</svg>
